<mxfile host="app.diagrams.net" agent="Mozilla/5.0 (Windows NT 10.0; Win64; x64) AppleWebKit/537.36 (KHTML, like Gecko) Chrome/133.0.0.0 Safari/537.36" version="26.1.0">
  <diagram id="pq95lbgT-Yo4BG3IGNfW" name="Page-2">
    <mxGraphModel dx="3088" dy="738" grid="1" gridSize="10" guides="1" tooltips="1" connect="1" arrows="1" fold="1" page="1" pageScale="1" pageWidth="827" pageHeight="1169" math="0" shadow="0">
      <root>
        <mxCell id="0" />
        <mxCell id="1" parent="0" />
        <mxCell id="u7BcEGfP_u4zofudTy5Y-1" value="&#xa;&lt;h3 style=&quot;box-sizing: border-box; margin-bottom: 0px; font-weight: 300; margin-top: 0px; font-size: 4rem; line-height: 1.1; color: var(--dark-brown); letter-spacing: -0.03em; font-family: &amp;quot;Mabry Pro&amp;quot;, sans-serif; text-align: center; font-style: normal; font-variant-ligatures: normal; font-variant-caps: normal; orphans: 2; text-indent: 0px; text-transform: none; widows: 2; word-spacing: 0px; -webkit-text-stroke-width: 0px; white-space: normal; background-color: rgb(240, 234, 225); text-decoration-thickness: initial; text-decoration-style: initial; text-decoration-color: initial;&quot; class=&quot;heading-style-h2 text-align-center&quot;&gt;Nurseries designed for mindfulness, learning &amp;amp; play&lt;/h3&gt;&#xa;&#xa;" style="rounded=0;whiteSpace=wrap;html=1;" parent="1" vertex="1">
          <mxGeometry x="-1320" y="50" width="960" height="2270" as="geometry" />
        </mxCell>
        <mxCell id="u7BcEGfP_u4zofudTy5Y-2" value="" style="rounded=0;whiteSpace=wrap;html=1;movable=1;resizable=1;rotatable=1;deletable=1;editable=1;locked=0;connectable=1;" parent="1" vertex="1">
          <mxGeometry x="-1320" y="50" width="960" height="520" as="geometry" />
        </mxCell>
        <mxCell id="u7BcEGfP_u4zofudTy5Y-3" value="" style="rounded=1;whiteSpace=wrap;html=1;align=center;" parent="1" vertex="1">
          <mxGeometry x="-1140" y="69" width="620" height="60" as="geometry" />
        </mxCell>
        <mxCell id="u7BcEGfP_u4zofudTy5Y-10" value="" style="rounded=0;whiteSpace=wrap;html=1;movable=1;resizable=1;rotatable=1;deletable=1;editable=1;locked=0;connectable=1;" parent="1" vertex="1">
          <mxGeometry x="-1320" y="570" width="960" height="520" as="geometry" />
        </mxCell>
        <mxCell id="u7BcEGfP_u4zofudTy5Y-14" value="&lt;font style=&quot;font-size: 41px;&quot;&gt;We’re a nursery on a  mission to empower parents to raise a happy, healthy and conscious generation&lt;/font&gt;" style="text;html=1;align=left;verticalAlign=middle;whiteSpace=wrap;rounded=0;spacingTop=-38;horizontal=1;spacingBottom=-40;" parent="1" vertex="1">
          <mxGeometry x="-1250" y="750" width="730" height="20" as="geometry" />
        </mxCell>
        <mxCell id="u7BcEGfP_u4zofudTy5Y-16" value="" style="rounded=0;whiteSpace=wrap;html=1;movable=1;resizable=1;rotatable=1;deletable=1;editable=1;locked=0;connectable=1;" parent="1" vertex="1">
          <mxGeometry x="-1320" y="1090" width="960" height="520" as="geometry" />
        </mxCell>
        <mxCell id="u7BcEGfP_u4zofudTy5Y-24" value="" style="rounded=1;whiteSpace=wrap;html=1;" parent="1" vertex="1">
          <mxGeometry x="-1250" y="1140" width="830" height="420" as="geometry" />
        </mxCell>
        <mxCell id="u7BcEGfP_u4zofudTy5Y-27" value="&lt;h2 style=&quot;box-sizing: border-box; margin-bottom: 0px; font-weight: 300; margin-top: 0px; font-size: 0.75rem; line-height: 1.5; letter-spacing: 0.01em; font-family: &amp;quot;Mabry Pro&amp;quot;, sans-serif; color: var(--dark-brown); text-transform: uppercase; mix-blend-mode: multiply; overflow: visible; text-align: start;&quot; class=&quot;heading-style-h5&quot;&gt;&lt;span&gt;OUR NURSERIES&amp;nbsp;&lt;/span&gt;&lt;/h2&gt;" style="text;html=1;align=center;verticalAlign=middle;whiteSpace=wrap;rounded=0;" parent="1" vertex="1">
          <mxGeometry x="-935" y="1640" width="130" height="45" as="geometry" />
        </mxCell>
        <mxCell id="u7BcEGfP_u4zofudTy5Y-28" value="&lt;h3 style=&quot;box-sizing: border-box; margin-bottom: 0px; font-weight: 300; margin-top: 0px; line-height: 1.1; color: var(--dark-brown); letter-spacing: -0.03em; font-family: &amp;quot;Mabry Pro&amp;quot;, sans-serif;&quot; class=&quot;heading-style-h2 text-align-center&quot;&gt;&lt;font style=&quot;font-size: 41px;&quot;&gt;Nurseries designed for mindfulness, learning &amp;amp; play&lt;/font&gt;&lt;/h3&gt;" style="text;html=1;align=center;verticalAlign=middle;whiteSpace=wrap;rounded=0;" parent="1" vertex="1">
          <mxGeometry x="-1150" y="1710" width="600" height="30" as="geometry" />
        </mxCell>
        <mxCell id="u7BcEGfP_u4zofudTy5Y-29" value="" style="group" parent="1" vertex="1" connectable="0">
          <mxGeometry x="-1270" y="1820" width="870" height="330" as="geometry" />
        </mxCell>
        <mxCell id="u7BcEGfP_u4zofudTy5Y-30" value="" style="rounded=1;whiteSpace=wrap;html=1;" parent="u7BcEGfP_u4zofudTy5Y-29" vertex="1">
          <mxGeometry width="870" height="330" as="geometry" />
        </mxCell>
        <mxCell id="u7BcEGfP_u4zofudTy5Y-33" value="" style="rounded=1;whiteSpace=wrap;html=1;" parent="u7BcEGfP_u4zofudTy5Y-29" vertex="1">
          <mxGeometry x="70" y="30" width="560" height="270" as="geometry" />
        </mxCell>
        <mxCell id="u7BcEGfP_u4zofudTy5Y-66" value="" style="shape=singleArrow;whiteSpace=wrap;html=1;" parent="u7BcEGfP_u4zofudTy5Y-29" vertex="1">
          <mxGeometry x="770" y="140" width="70" height="50" as="geometry" />
        </mxCell>
        <mxCell id="u7BcEGfP_u4zofudTy5Y-67" value="" style="shape=singleArrow;direction=west;whiteSpace=wrap;html=1;" parent="u7BcEGfP_u4zofudTy5Y-29" vertex="1">
          <mxGeometry x="660" y="140" width="70" height="50" as="geometry" />
        </mxCell>
        <mxCell id="u7BcEGfP_u4zofudTy5Y-45" value="" style="rounded=0;whiteSpace=wrap;html=1;movable=1;resizable=1;rotatable=1;deletable=1;editable=1;locked=0;connectable=1;" parent="1" vertex="1">
          <mxGeometry x="-1320" y="2301" width="960" height="470" as="geometry" />
        </mxCell>
        <mxCell id="u7BcEGfP_u4zofudTy5Y-46" value="" style="rounded=1;whiteSpace=wrap;html=1;" parent="1" vertex="1">
          <mxGeometry x="-1210" y="2170" width="165" height="70" as="geometry" />
        </mxCell>
        <mxCell id="u7BcEGfP_u4zofudTy5Y-55" value="" style="rounded=1;whiteSpace=wrap;html=1;" parent="1" vertex="1">
          <mxGeometry x="-1270" y="2330" width="870" height="410" as="geometry" />
        </mxCell>
        <mxCell id="u7BcEGfP_u4zofudTy5Y-57" value="&lt;font style=&quot;font-size: 81px;&quot;&gt;Uxbridge&amp;nbsp;&lt;/font&gt;" style="text;html=1;align=left;verticalAlign=middle;whiteSpace=wrap;rounded=0;spacingTop=-38;horizontal=1;spacingBottom=-40;" parent="1" vertex="1">
          <mxGeometry x="-1250.5" y="300" width="480" height="20" as="geometry" />
        </mxCell>
        <mxCell id="u7BcEGfP_u4zofudTy5Y-58" value="" style="rounded=0;whiteSpace=wrap;html=1;sketch=1;curveFitting=1;jiggle=2;verticalAlign=middle;align=center;" parent="1" vertex="1">
          <mxGeometry x="-850" y="160" width="460" height="380" as="geometry" />
        </mxCell>
        <mxCell id="u7BcEGfP_u4zofudTy5Y-59" value="&lt;span style=&quot;color: rgb(40, 37, 37); font-family: &amp;quot;Mabry Pro&amp;quot;, sans-serif; font-size: 17.6px; letter-spacing: -0.264px; background-color: rgb(235, 229, 221);&quot;&gt;Welcome to the vibrant East London community of Hackney Wick. In 2020, MEplace Nursery HWK opened its doors. When demand grew quickly, our second site opened next door in 2022, and we named the sites ‘MEbaby’ and ‘MEbig’. We’re so proud of our thriving HWK nurseries, which reflect and celebrate our local community from our teachers to our toddlers!&lt;/span&gt;" style="text;html=1;align=left;verticalAlign=middle;whiteSpace=wrap;rounded=0;spacingTop=-38;horizontal=1;spacingBottom=-40;" parent="1" vertex="1">
          <mxGeometry x="-1070" y="920" width="610" height="20" as="geometry" />
        </mxCell>
        <mxCell id="u7BcEGfP_u4zofudTy5Y-61" value="" style="endArrow=none;html=1;rounded=0;exitX=0.687;exitY=0.167;exitDx=0;exitDy=0;exitPerimeter=0;" parent="1" source="u7BcEGfP_u4zofudTy5Y-24" edge="1">
          <mxGeometry width="50" height="50" relative="1" as="geometry">
            <mxPoint x="-855" y="1330.2" as="sourcePoint" />
            <mxPoint x="-1010" y="1210" as="targetPoint" />
          </mxGeometry>
        </mxCell>
        <mxCell id="u7BcEGfP_u4zofudTy5Y-63" value="" style="endArrow=none;html=1;rounded=0;exitX=0.687;exitY=0.167;exitDx=0;exitDy=0;exitPerimeter=0;" parent="1" edge="1">
          <mxGeometry width="50" height="50" relative="1" as="geometry">
            <mxPoint x="-674.75" y="1280" as="sourcePoint" />
            <mxPoint x="-1004.75" y="1280" as="targetPoint" />
          </mxGeometry>
        </mxCell>
        <mxCell id="u7BcEGfP_u4zofudTy5Y-64" value="" style="endArrow=none;html=1;rounded=0;exitX=0.687;exitY=0.167;exitDx=0;exitDy=0;exitPerimeter=0;" parent="1" edge="1">
          <mxGeometry width="50" height="50" relative="1" as="geometry">
            <mxPoint x="-670" y="1349.41" as="sourcePoint" />
            <mxPoint x="-1000" y="1349.41" as="targetPoint" />
          </mxGeometry>
        </mxCell>
        <mxCell id="u7BcEGfP_u4zofudTy5Y-65" value="" style="endArrow=none;html=1;rounded=0;" parent="1" edge="1">
          <mxGeometry width="50" height="50" relative="1" as="geometry">
            <mxPoint x="-670" y="1430" as="sourcePoint" />
            <mxPoint x="-995" y="1430" as="targetPoint" />
          </mxGeometry>
        </mxCell>
        <mxCell id="u7BcEGfP_u4zofudTy5Y-68" value="" style="rounded=1;whiteSpace=wrap;html=1;" parent="1" vertex="1">
          <mxGeometry x="-1015" y="2170" width="165" height="70" as="geometry" />
        </mxCell>
        <mxCell id="u7BcEGfP_u4zofudTy5Y-69" value="" style="rounded=1;whiteSpace=wrap;html=1;" parent="1" vertex="1">
          <mxGeometry x="-827" y="2170" width="165" height="70" as="geometry" />
        </mxCell>
        <mxCell id="u7BcEGfP_u4zofudTy5Y-70" value="" style="rounded=1;whiteSpace=wrap;html=1;" parent="1" vertex="1">
          <mxGeometry x="-640" y="2170" width="165" height="70" as="geometry" />
        </mxCell>
        <mxCell id="u7BcEGfP_u4zofudTy5Y-71" value="&lt;h3 style=&quot;box-sizing: border-box; margin-bottom: 0px; font-weight: 300; margin-top: 0px; line-height: 1.1; color: var(--dark-brown); letter-spacing: -0.03em; font-family: &amp;quot;Mabry Pro&amp;quot;, sans-serif;&quot; class=&quot;heading-style-h2 text-align-center&quot;&gt;&lt;font style=&quot;font-size: 41px;&quot;&gt;Our Instagram&amp;nbsp;&lt;/font&gt;&lt;/h3&gt;" style="text;html=1;align=center;verticalAlign=middle;whiteSpace=wrap;rounded=0;" parent="1" vertex="1">
          <mxGeometry x="-1360" y="2380" width="600" height="30" as="geometry" />
        </mxCell>
        <mxCell id="u7BcEGfP_u4zofudTy5Y-72" value="" style="rounded=1;whiteSpace=wrap;html=1;" parent="1" vertex="1">
          <mxGeometry x="-1210" y="2440" width="220" height="270" as="geometry" />
        </mxCell>
        <mxCell id="u7BcEGfP_u4zofudTy5Y-73" value="" style="rounded=1;whiteSpace=wrap;html=1;" parent="1" vertex="1">
          <mxGeometry x="-940" y="2440" width="220" height="270" as="geometry" />
        </mxCell>
        <mxCell id="u7BcEGfP_u4zofudTy5Y-74" value="" style="rounded=1;whiteSpace=wrap;html=1;" parent="1" vertex="1">
          <mxGeometry x="-680" y="2440" width="220" height="270" as="geometry" />
        </mxCell>
        <mxCell id="u7BcEGfP_u4zofudTy5Y-80" value="" style="shape=singleArrow;whiteSpace=wrap;html=1;" parent="1" vertex="1">
          <mxGeometry x="-550" y="2370" width="70" height="50" as="geometry" />
        </mxCell>
        <mxCell id="u7BcEGfP_u4zofudTy5Y-81" value="" style="rounded=0;whiteSpace=wrap;html=1;movable=1;resizable=1;rotatable=1;deletable=1;editable=1;locked=0;connectable=1;" parent="1" vertex="1">
          <mxGeometry x="-1320" y="2771" width="960" height="470" as="geometry" />
        </mxCell>
        <mxCell id="u7BcEGfP_u4zofudTy5Y-82" value="" style="rounded=0;whiteSpace=wrap;html=1;" parent="1" vertex="1">
          <mxGeometry x="-1260" y="2810" width="850" height="390" as="geometry" />
        </mxCell>
        <mxCell id="u7BcEGfP_u4zofudTy5Y-83" value="" style="endArrow=none;html=1;rounded=0;entryX=0.75;entryY=0;entryDx=0;entryDy=0;exitX=0.75;exitY=1;exitDx=0;exitDy=0;" parent="1" edge="1">
          <mxGeometry width="50" height="50" relative="1" as="geometry">
            <mxPoint x="-782.8300000000005" y="3201" as="sourcePoint" />
            <mxPoint x="-782.8300000000005" y="2811" as="targetPoint" />
          </mxGeometry>
        </mxCell>
        <mxCell id="u7BcEGfP_u4zofudTy5Y-87" value="&lt;font style=&quot;font-size: 50px;&quot;&gt;Map&amp;nbsp;&lt;/font&gt;" style="text;html=1;align=center;verticalAlign=middle;whiteSpace=wrap;rounded=0;" parent="1" vertex="1">
          <mxGeometry x="-1100" y="2940" width="190" height="110" as="geometry" />
        </mxCell>
        <mxCell id="u7BcEGfP_u4zofudTy5Y-88" value="&lt;font style=&quot;font-size: 50px;&quot;&gt;Located at......&lt;/font&gt;" style="text;html=1;align=center;verticalAlign=middle;whiteSpace=wrap;rounded=0;" parent="1" vertex="1">
          <mxGeometry x="-750" y="2810" width="320" height="110" as="geometry" />
        </mxCell>
        <mxCell id="u7BcEGfP_u4zofudTy5Y-89" value="&lt;span style=&quot;color: rgb(40, 37, 37); font-family: &amp;quot;Mabry Pro&amp;quot;, sans-serif; letter-spacing: -0.264px;&quot;&gt;&lt;font style=&quot;font-size: 15px;&quot;&gt;Nestled in the heart of the vibrant Hackney Wick, our neighbouring nursery sites sit at the intersection of community life and green space. Tucked between two beautiful parks, the possibilities for exploration with our little learners are endless. We’re moments away from the Hackney Wick Overground station, and within 20 minutes you can travel from our East London home right into the heart of the city.&lt;/font&gt;&lt;/span&gt;" style="text;html=1;align=left;verticalAlign=middle;whiteSpace=wrap;rounded=0;" parent="1" vertex="1">
          <mxGeometry x="-760" y="2940" width="320" height="110" as="geometry" />
        </mxCell>
        <mxCell id="u7BcEGfP_u4zofudTy5Y-90" value="" style="rounded=1;whiteSpace=wrap;html=1;" parent="1" vertex="1">
          <mxGeometry x="-760" y="3116" width="165" height="50" as="geometry" />
        </mxCell>
        <mxCell id="u7BcEGfP_u4zofudTy5Y-91" value="" style="rounded=0;whiteSpace=wrap;html=1;movable=1;resizable=1;rotatable=1;deletable=1;editable=1;locked=0;connectable=1;" parent="1" vertex="1">
          <mxGeometry x="-1320" y="3241" width="960" height="470" as="geometry" />
        </mxCell>
        <mxCell id="u7BcEGfP_u4zofudTy5Y-92" value="" style="rounded=1;whiteSpace=wrap;html=1;" parent="1" vertex="1">
          <mxGeometry x="-1270" y="3360" width="250" height="241" as="geometry" />
        </mxCell>
        <mxCell id="u7BcEGfP_u4zofudTy5Y-93" value="" style="rounded=1;whiteSpace=wrap;html=1;" parent="1" vertex="1">
          <mxGeometry x="-975" y="3360" width="250" height="241" as="geometry" />
        </mxCell>
        <mxCell id="u7BcEGfP_u4zofudTy5Y-94" value="" style="rounded=1;whiteSpace=wrap;html=1;" parent="1" vertex="1">
          <mxGeometry x="-680" y="3355.5" width="250" height="241" as="geometry" />
        </mxCell>
        <mxCell id="u7BcEGfP_u4zofudTy5Y-95" value="&lt;font style=&quot;font-size: 37px;&quot;&gt;We offer&amp;nbsp;&lt;/font&gt;" style="text;html=1;align=center;verticalAlign=middle;whiteSpace=wrap;rounded=0;" parent="1" vertex="1">
          <mxGeometry x="-975" y="3260" width="265" height="110" as="geometry" />
        </mxCell>
      </root>
    </mxGraphModel>
  </diagram>
</mxfile>
